<?xml version="1.0" encoding="UTF-8"?>
<svg id="Calque_1" data-name="Calque 1" xmlns="http://www.w3.org/2000/svg" viewBox="0 0 1024 1024">
  <defs>
    <style>
      .cls-1 {
        fill: #fff;
      }
    </style>
  </defs>
  <path d="M269.58,427.98c46.33,0,84.02,37.69,84.02,84.02s-37.69,84.02-84.02,84.02-84.02-37.69-84.02-84.02,37.69-84.02,84.02-84.02M269.58,403.98c-59.66,0-108.02,48.36-108.02,108.02s48.36,108.02,108.02,108.02,108.02-48.36,108.02-108.02-48.36-108.02-108.02-108.02h0Z"/>
  <g>
    <path class="cls-1" d="M323.45,607.69c-52.76,0-95.69-42.93-95.69-95.69s42.92-95.69,95.69-95.69,95.69,42.92,95.69,95.69-42.93,95.69-95.69,95.69Z"/>
    <path d="M323.45,428.65c45.96,0,83.35,37.39,83.35,83.35s-37.39,83.35-83.35,83.35-83.35-37.39-83.35-83.35,37.39-83.35,83.35-83.35M323.45,403.98c-59.66,0-108.02,48.36-108.02,108.02s48.36,108.02,108.02,108.02,108.02-48.36,108.02-108.02-48.36-108.02-108.02-108.02h0Z"/>
  </g>
  <g>
    <path class="cls-1" d="M377.32,607.35c-52.58,0-95.35-42.78-95.35-95.35s42.78-95.35,95.35-95.35,95.35,42.78,95.35,95.35-42.78,95.35-95.35,95.35Z"/>
    <path d="M377.32,429.31c45.59,0,82.69,37.09,82.69,82.69s-37.09,82.69-82.69,82.69-82.69-37.09-82.69-82.69,37.09-82.69,82.69-82.69M377.32,403.98c-59.66,0-108.02,48.36-108.02,108.02s48.36,108.02,108.02,108.02,108.02-48.36,108.02-108.02-48.36-108.02-108.02-108.02h0Z"/>
  </g>
  <g>
    <path class="cls-1" d="M431.19,607.02c-52.39,0-95.02-42.63-95.02-95.02s42.63-95.02,95.02-95.02,95.02,42.63,95.02,95.02-42.63,95.02-95.02,95.02Z"/>
    <path d="M431.19,429.98c45.23,0,82.02,36.79,82.02,82.02s-36.79,82.02-82.02,82.02-82.02-36.79-82.02-82.02,36.79-82.02,82.02-82.02M431.19,403.98c-59.66,0-108.02,48.36-108.02,108.02s48.36,108.02,108.02,108.02,108.02-48.36,108.02-108.02-48.36-108.02-108.02-108.02h0Z"/>
  </g>
  <g>
    <path class="cls-1" d="M485.06,606.69c-52.21,0-94.69-42.48-94.69-94.69s42.48-94.69,94.69-94.69,94.69,42.48,94.69,94.69-42.48,94.69-94.69,94.69Z"/>
    <path d="M485.06,430.65c44.86,0,81.35,36.5,81.35,81.35s-36.5,81.35-81.35,81.35-81.35-36.5-81.35-81.35,36.5-81.35,81.35-81.35M485.06,403.98c-59.66,0-108.02,48.36-108.02,108.02s48.36,108.02,108.02,108.02,108.02-48.36,108.02-108.02-48.36-108.02-108.02-108.02h0Z"/>
  </g>
  <g>
    <path class="cls-1" d="M538.94,606.35c-52.03,0-94.35-42.33-94.35-94.35s42.33-94.35,94.35-94.35,94.35,42.33,94.35,94.35-42.33,94.35-94.35,94.35Z"/>
    <path d="M538.94,431.31c44.49,0,80.69,36.2,80.69,80.69s-36.2,80.69-80.69,80.69-80.69-36.2-80.69-80.69,36.2-80.69,80.69-80.69M538.94,403.98c-59.66,0-108.02,48.36-108.02,108.02s48.36,108.02,108.02,108.02,108.02-48.36,108.02-108.02-48.36-108.02-108.02-108.02h0Z"/>
  </g>
  <g>
    <path class="cls-1" d="M592.81,606.02c-51.84,0-94.02-42.18-94.02-94.02s42.18-94.02,94.02-94.02,94.02,42.18,94.02,94.02-42.18,94.02-94.02,94.02Z"/>
    <path d="M592.81,431.98c44.12,0,80.02,35.9,80.02,80.02s-35.9,80.02-80.02,80.02-80.02-35.9-80.02-80.02,35.9-80.02,80.02-80.02M592.81,403.98c-59.66,0-108.02,48.36-108.02,108.02s48.36,108.02,108.02,108.02,108.02-48.36,108.02-108.02-48.36-108.02-108.02-108.02h0Z"/>
  </g>
  <g>
    <path class="cls-1" d="M646.68,605.69c-51.66,0-93.69-42.03-93.69-93.69s42.03-93.69,93.69-93.69,93.69,42.03,93.69,93.69-42.03,93.69-93.69,93.69Z"/>
    <path d="M646.68,432.65c43.76,0,79.35,35.6,79.35,79.35s-35.6,79.35-79.35,79.35-79.35-35.6-79.35-79.35,35.6-79.35,79.35-79.35M646.68,403.98c-59.66,0-108.02,48.36-108.02,108.02s48.36,108.02,108.02,108.02,108.02-48.36,108.02-108.02-48.36-108.02-108.02-108.02h0Z"/>
  </g>
  <g>
    <path class="cls-1" d="M700.55,605.35c-51.48,0-93.35-41.88-93.35-93.35s41.88-93.35,93.35-93.35,93.35,41.88,93.35,93.35-41.88,93.35-93.35,93.35Z"/>
    <path d="M700.55,433.31c43.39,0,78.69,35.3,78.69,78.69s-35.3,78.69-78.69,78.69-78.69-35.3-78.69-78.69,35.3-78.69,78.69-78.69M700.55,403.98c-59.66,0-108.02,48.36-108.02,108.02s48.36,108.02,108.02,108.02,108.02-48.36,108.02-108.02-48.36-108.02-108.02-108.02h0Z"/>
  </g>
  <g>
    <path class="cls-1" d="M754.42,605.02c-51.29,0-93.02-41.73-93.02-93.02s41.73-93.02,93.02-93.02,93.02,41.73,93.02,93.02-41.73,93.02-93.02,93.02Z"/>
    <path d="M754.42,433.98c43.02,0,78.02,35,78.02,78.02s-35,78.02-78.02,78.02-78.02-35-78.02-78.02,35-78.02,78.02-78.02M754.42,403.98c-59.66,0-108.02,48.36-108.02,108.02s48.36,108.02,108.02,108.02,108.02-48.36,108.02-108.02-48.36-108.02-108.02-108.02h0Z"/>
  </g>
</svg>